<?xml version="1.0" standalone="no"?>
<!DOCTYPE svg PUBLIC "-//W3C//DTD SVG 20010904//EN"
 "http://www.w3.org/TR/2001/REC-SVG-20010904/DTD/svg10.dtd">
<svg version="1.0" xmlns="http://www.w3.org/2000/svg"
 width="300.000000pt" height="300.000000pt" viewBox="0 0 300.000000 300.000000"
 preserveAspectRatio="xMidYMid meet">
<metadata>
Created by potrace 1.10, written by Peter Selinger 2001-2011
</metadata>
<g transform="translate(0.000000,300.000000) scale(0.100000,-0.100000)"
fill="#000000" stroke="none">
<path d="M1216 2889 c-98 -10 -169 -31 -266 -77 -179 -85 -335 -199 -393 -287
-43 -64 -92 -183 -107 -260 -7 -33 -31 -114 -53 -180 -67 -197 -55 -299 49
-421 l45 -53 -19 -38 c-37 -74 -47 -141 -46 -318 0 -99 6 -195 14 -230 15 -72
16 -93 6 -123 -6 -20 -5 -23 11 -21 10 2 24 0 31 -5 15 -9 42 10 42 30 0 20
-18 17 -23 -4 -4 -16 -5 -16 -6 1 -1 18 -21 25 -21 7 0 -5 -3 -10 -7 -10 -5 0
-8 21 -9 48 0 26 -6 90 -12 142 -15 119 -15 268 -1 346 9 53 37 153 45 163 1
1 18 -8 36 -22 43 -33 191 -106 201 -100 5 3 -33 25 -83 50 -162 79 -268 212
-277 348 -4 61 -1 80 25 145 34 85 53 150 77 265 34 159 104 267 235 364 78
58 262 158 343 187 112 40 245 49 422 30 172 -19 227 -33 301 -77 71 -42 275
-243 329 -324 22 -33 43 -62 46 -65 15 -12 129 -252 157 -330 72 -199 102
-298 126 -415 14 -70 30 -144 47 -220 5 -22 15 -122 23 -222 13 -155 13 -197
1 -286 -27 -207 -92 -371 -206 -518 -66 -85 -106 -120 -219 -194 -41 -27 -96
-66 -122 -87 -37 -31 -45 -34 -41 -18 4 15 0 20 -15 20 -11 0 -25 -7 -32 -15
-21 -25 -33 -17 -15 11 23 35 14 39 -30 13 l-38 -23 26 40 c14 21 33 58 42 81
15 36 20 41 35 33 22 -12 30 -13 30 -2 0 4 -22 15 -49 25 -95 33 -157 139
-167 286 -3 42 -1 95 4 119 10 42 -1 60 -13 22 -11 -34 -8 -162 4 -221 11 -53
37 -115 59 -142 16 -18 -534 -13 -617 6 -33 8 -61 11 -61 6 0 -4 16 -11 35
-15 51 -9 35 -17 -59 -30 -61 -8 -107 -22 -172 -53 -49 -23 -97 -50 -106 -58
-15 -13 -18 -13 -18 -2 0 12 -2 12 -9 -1 -17 -26 0 -31 32 -10 81 53 185 92
291 111 90 15 163 19 402 19 l293 1 45 -26 45 -26 -17 -37 c-9 -20 -29 -55
-44 -76 -16 -21 -28 -45 -28 -53 0 -18 25 -17 40 2 20 24 31 18 18 -10 -16
-35 -4 -41 30 -16 37 26 42 26 42 1 0 -23 25 -27 37 -6 11 18 139 113 185 137
20 10 64 44 97 75 184 170 296 427 308 706 6 147 -9 343 -37 473 -10 50 -27
128 -36 175 -34 178 -182 581 -265 722 -117 198 -325 405 -465 464 -50 21
-171 41 -290 49 -55 3 -108 7 -119 9 -11 2 -55 -1 -99 -5z"/>
<path d="M610 2324 c-62 -52 -98 -162 -70 -214 15 -29 50 -44 94 -41 53 3 69
13 106 68 28 42 31 54 26 96 -12 104 -87 148 -156 91z m68 -48 c4 -35 -31 -76
-65 -76 -28 0 -31 33 -6 70 33 49 66 52 71 6z m43 -94 c-29 -70 -88 -96 -135
-58 -36 28 -27 49 17 41 27 -5 38 -1 72 29 45 40 65 35 46 -12z"/>
<path d="M1464 2311 c-37 -22 -74 -93 -74 -140 0 -72 69 -134 150 -135 59 -1
96 23 124 79 17 34 18 44 7 83 -16 62 -44 97 -91 116 -52 21 -78 20 -116 -3z
m76 -30 c17 -32 11 -60 -16 -77 -55 -37 -106 16 -70 72 21 30 70 33 86 5z
m100 -117 c0 -12 -9 -33 -20 -46 -10 -14 -17 -28 -15 -32 3 -3 2 -4 -2 -1 -3
3 -12 0 -19 -6 -21 -17 -98 -2 -121 24 -22 24 -34 52 -27 60 3 3 20 1 38 -3
26 -6 41 -3 65 12 17 11 31 26 31 34 0 8 4 14 9 14 5 0 12 10 16 23 6 20 8 19
25 -18 11 -22 20 -50 20 -61z"/>
<path d="M935 1960 c-9 -15 14 -40 37 -40 10 0 33 7 50 16 24 12 28 18 17 25
-20 12 -96 11 -104 -1z"/>
<path d="M806 1801 c-4 -5 6 -19 21 -31 29 -23 51 -23 164 -4 24 4 47 0 67
-10 17 -9 45 -16 62 -16 31 0 116 37 107 46 -3 3 -23 -4 -46 -15 -50 -26 -61
-26 -119 0 -43 20 -51 21 -92 8 -69 -20 -119 -17 -141 9 -9 12 -20 18 -23 13z"/>
<path d="M1781 1263 c-16 -54 -39 -136 -50 -182 -12 -47 -32 -104 -46 -127
-29 -49 -30 -54 -11 -54 11 0 13 -9 9 -35 -6 -38 -2 -41 28 -25 16 9 19 7 19
-9 0 -26 17 -36 37 -20 13 11 17 10 29 -6 13 -17 16 -18 24 -5 5 8 10 18 10
21 0 4 46 53 103 110 89 90 109 117 149 199 47 97 68 154 51 135 -5 -5 -22
-39 -38 -75 -53 -123 -127 -220 -242 -315 -18 -15 -33 -36 -33 -48 -1 -21 -1
-21 -14 -4 -12 15 -18 16 -35 7 -22 -11 -25 -8 -22 23 2 18 -24 24 -34 7 -13
-21 -24 -9 -15 16 13 33 13 34 -5 34 -20 0 -19 6 4 39 11 15 35 88 55 162 19
74 44 160 55 192 11 31 16 57 11 57 -5 0 -23 -44 -39 -97z"/>
<path d="M662 1124 c-11 -38 -30 -102 -41 -143 -23 -83 -27 -89 -43 -73 -16
16 -28 15 -28 -2 0 -8 -6 -16 -12 -19 -10 -4 -10 -7 0 -18 11 -11 14 -10 19 9
5 20 8 17 23 -25 24 -68 84 -165 145 -237 l52 -62 -31 -44 c-25 -37 -31 -57
-34 -112 -4 -62 -7 -70 -43 -109 -41 -44 -40 -71 0 -49 12 6 25 9 29 6 9 -5
47 22 40 29 -3 3 -22 -2 -44 -11 l-39 -16 37 39 c33 35 36 43 40 110 3 61 8
79 34 116 l31 43 -40 45 c-54 59 -131 179 -152 234 -16 40 -16 45 -1 60 9 9
23 42 32 73 8 31 26 91 39 132 13 42 20 79 15 84 -5 5 -17 -22 -28 -60z"/>
<path d="M732 239 c-13 -5 -27 -7 -32 -4 -10 6 -35 -23 -27 -32 4 -3 22 2 41
11 19 9 40 15 47 14 6 -2 14 3 16 10 5 14 -12 15 -45 1z"/>
</g>
</svg>
